# xmcd
#
# Track frame offsets:
#	150
#	34425
#	61589
#	100837
#	121672
#	133366
#	173711
#	197836
#	239488
#	297538
#
# Disc length: 4363 seconds
#
# Revision: 15
# Processed by: cddbd v1.5.2PL0 Copyright (c) Steve Scherf et al.
# Submitted via: Jack! The Knife 20 Magnifico
#
DISCID=9411090a
DTITLE=Judas Priest - Epitaph [CD 2)
DYEAR=2013
DGENRE=Metal
TTITLE0=Beyond The Realms Of Death
TTITLE1=The Sentinel
TTITLE2=Blood Red Skies
TTITLE3=The Green Manalishi (With The Two-Pronged Crown)
TTITLE4=Breaking The Law
TTITLE5=Painkiller
TTITLE6=The Hellion - Electric Eye
TTITLE7=Hell Bent For Leather
TTITLE8=You've Got Another Thing Coming
TTITLE9=Living After Midnight
EXTD=Judas Priest
EXTT0=Les Binks
EXTT1=Tipton, Halford, Downing
EXTT2=Tipton, Halford, Downing
EXTT3=Peter Green
EXTT4=Tipton, Halford, Downing
EXTT5=Tipton, Halford, Downing
EXTT6=Tipton, Halford, Downing
EXTT7=Glenn Tipton
EXTT8=Tipton, Halford, Downing
EXTT9=Tipton, Halford, Downing
PLAYORDER=
